<?xml version="1.0" encoding="UTF-8" standalone="no"?>
<svg
   xmlns:dc="http://purl.org/dc/elements/1.1/"
   xmlns:cc="http://creativecommons.org/ns#"
   xmlns:rdf="http://www.w3.org/1999/02/22-rdf-syntax-ns#"
   xmlns:svg="http://www.w3.org/2000/svg"
   xmlns="http://www.w3.org/2000/svg"
   xmlns:xlink="http://www.w3.org/1999/xlink"
   xmlns:sodipodi="http://sodipodi.sourceforge.net/DTD/sodipodi-0.dtd"
   xmlns:inkscape="http://www.inkscape.org/namespaces/inkscape"
   id="efc2cce4-2675-4bf3-b158-ee4f8f87dd5e"
   data-name="Слой 1"
   width="74.363998"
   height="63.311985"
   viewBox="0 0 74.364 63.311988"
   version="1.1"
   sodipodi:docname="mysql-mariadb-percona-logo.svg"
   inkscape:version="0.92.3 (2405546, 2018-03-11)">
  <metadata
     id="metadata869">
    <rdf:RDF>
      <cc:Work
         rdf:about="">
        <dc:format>image/svg+xml</dc:format>
        <dc:type
           rdf:resource="http://purl.org/dc/dcmitype/StillImage" />
        <dc:title />
      </cc:Work>
    </rdf:RDF>
  </metadata>
  <defs
     id="defs867">
    <linearGradient
       x1="126.34505"
       y1="0.58455789"
       x2="126.34505"
       y2="253.27467"
       id="a"
       gradientTransform="scale(1.0130986,0.98707073)"
       gradientUnits="userSpaceOnUse">
      <stop
         stop-color="#FBB32F"
         offset="0%"
         id="stop2" />
      <stop
         stop-color="#C11511"
         offset="50.474%"
         id="stop4" />
      <stop
         stop-color="#C11411"
         offset="100%"
         id="stop6" />
    </linearGradient>
    <linearGradient
       inkscape:collect="always"
       xlink:href="#a"
       id="linearGradient5751"
       gradientUnits="userSpaceOnUse"
       gradientTransform="scale(1.0130986,0.98707073)"
       x1="126.34505"
       y1="0.58455789"
       x2="126.34505"
       y2="253.27467" />
  </defs>
  <sodipodi:namedview
     pagecolor="#ffffff"
     bordercolor="#666666"
     borderopacity="1"
     objecttolerance="10"
     gridtolerance="10"
     guidetolerance="10"
     inkscape:pageopacity="0"
     inkscape:pageshadow="2"
     inkscape:window-width="1920"
     inkscape:window-height="1017"
     id="namedview865"
     showgrid="false"
     inkscape:zoom="4.7922237"
     inkscape:cx="-26.638929"
     inkscape:cy="63.03748"
     inkscape:window-x="-8"
     inkscape:window-y="-8"
     inkscape:window-maximized="1"
     inkscape:current-layer="efc2cce4-2675-4bf3-b158-ee4f8f87dd5e" />
  <path
     style="fill:#00678c;fill-rule:evenodd;stroke-width:1.73488069"
     inkscape:connector-curvature="0"
     d="m 53.885391,37.525129 a 15.423089,15.423089 0 0 0 -6.575198,0.936836 c -0.503116,0.208185 -1.318509,0.208185 -1.387905,0.832742 0.277581,0.277581 0.312279,0.711301 0.537813,1.075626 a 8.3968226,8.3968226 0 0 0 1.734881,2.064508 l 2.168601,1.544044 c 1.318509,0.798045 2.810507,1.266463 4.094318,2.081857 0.745999,0.468418 1.474649,1.075626 2.220648,1.578741 0.381673,0.277581 0.607208,0.711302 1.092975,0.867441 V 48.42018 C 57.52864,48.107901 57.459245,47.674181 57.23371,47.344554 l -1.023579,-0.988882 a 16.273181,16.273181 0 0 0 -3.469762,-3.383018 c -1.075626,-0.745998 -3.469761,-1.73488 -3.886132,-3.001343 v 0 a 15.284299,15.284299 0 0 0 2.342089,-0.537813 c 1.145021,-0.312279 2.185949,-0.242884 3.383017,-0.537813 l 1.613439,-0.468418 V 38.114988 C 55.585574,37.50778 55.151854,36.709735 54.457901,36.137224 a 45.106898,45.106898 0 0 0 -5.586315,-4.129016 38.68784,38.68784 0 0 0 -3.469762,-1.73488 C 45.002802,30.065142 44.326198,29.961049 44.083315,29.631422 A 13.688209,13.688209 0 0 1 42.69541,27.04645 L 39.919601,21.182553 A 34.524126,34.524126 0 0 0 38.18472,17.365815 33.934266,33.934266 0 0 0 25.086371,4.7879302 16.602808,16.602808 0 0 0 20.766518,3.4000256 L 18.233592,3.2612352 A 11.77984,11.77984 0 0 1 16.6722,2.0988651 C 14.746482,0.88444859 9.7326769,-1.7352213 8.3447724,1.7171913 7.4426344,3.903141 9.6979793,6.0543931 10.478676,7.1647167 a 15.353694,15.353694 0 0 1 1.73488,2.515577 c 0.225535,0.5725103 0.312279,1.1797193 0.537813,1.7348803 a 40.544162,40.544162 0 0 0 1.734881,4.51069 16.949784,16.949784 0 0 0 1.249114,2.081857 c 0.260232,0.381674 0.745999,0.537813 0.850092,1.145021 a 8.6744035,8.6744035 0 0 0 -0.780697,2.515577 14.746486,14.746486 0 0 0 0.971534,11.311423 c 0.537813,0.832742 1.821624,2.689065 3.556505,1.977764 1.734881,-0.711302 1.179719,-2.515577 1.630788,-4.198412 0.08674,-0.416371 0,-0.676603 0.225534,-0.954184 v 0 l 1.387905,2.793158 a 19.361269,19.361269 0 0 0 4.406597,4.493341 c 0.798045,0.607208 1.4573,1.648136 2.46353,2.02981 v -0.05205 0 a 3.6605983,3.6605983 0 0 0 -0.780696,-0.676604 15.822112,15.822112 0 0 1 -1.734881,-2.012461 42.990344,42.990344 0 0 1 -3.782039,-6.124129 c -0.555162,-1.040929 -1.02358,-2.18595 -1.4573,-3.226878 C 22.48405,26.630078 22.48405,26.02287 22.137074,25.814684 a 12.890164,12.890164 0 0 0 -1.613439,2.290043 19.083688,19.083688 0 0 0 -0.954185,5.0832 c -0.13879,0 0,0 -0.13879,0 -1.075626,-0.260232 -1.439951,-1.370556 -1.856322,-2.32474 a 14.451556,14.451556 0 0 1 -0.29493,-8.969333 c 0.225534,-0.711301 1.249114,-2.931949 0.832743,-3.608552 -0.416372,-0.676603 -0.867441,-1.006231 -1.249114,-1.509346 A 14.572998,14.572998 0 0 1 15.64862,14.624704 C 14.833226,12.751033 14.434204,10.669176 13.549414,8.7781558 A 17.348807,17.348807 0 0 0 11.814534,6.1931835 18.268294,18.268294 0 0 1 9.9408626,3.5735137 C 9.7847233,3.1918399 9.54184,2.5846317 9.819421,2.1856091 a 0.5031154,0.5031154 0 0 1 0.468418,-0.4337202 c 0.43372,-0.3816737 1.73488,0.1040929 2.133903,0.2949298 a 18.32034,18.32034 0 0 1 3.34832,1.7348807 5.7598039,5.7598039 0 0 0 1.578741,1.1450212 h 0.711301 c 1.092975,0.2428833 2.307392,0 3.313622,0.3816738 a 21.096149,21.096149 0 0 1 4.875015,2.3247401 29.822599,29.822599 0 0 1 10.565424,11.4849105 c 0.399022,0.780696 0.57251,1.491997 0.936835,2.290042 0.711301,1.648137 1.59609,3.330971 2.307392,4.94441 a 22.796332,22.796332 0 0 0 2.394135,4.51069 c 0.520464,0.711301 2.550275,1.075626 3.469761,1.439951 a 23.577029,23.577029 0 0 1 2.342089,0.954184 c 1.145022,0.693953 2.290043,1.509347 3.383018,2.272694 0.537813,0.416372 2.237996,1.249114 2.32474,1.925718 z M 19.378614,8.309738 a 5.3260837,5.3260837 0 0 0 -1.387905,0.1561393 v 0 0 a 10.409284,10.409284 0 0 0 1.075626,1.3705557 l 0.780696,1.613439 v 0 A 1.9257176,1.9257176 0 0 0 20.558332,9.7149914 4.8923636,4.8923636 0 0 1 20.15931,9.0036903 C 19.951124,8.6740629 19.500055,8.5005749 19.239823,8.2403428 Z"
     id="path792"
     inkscape:export-xdpi="90.36631"
     inkscape:export-ydpi="90.36631" />
  <path
     style="fill:#002b64;stroke-width:1.73488069"
     inkscape:connector-curvature="0"
     d="m 72.726195,11.137594 c -1.145021,0 -0.780696,0.364324 -3.261576,0.971533 -2.480879,0.607208 -5.568967,0.43372 -8.275381,1.561392 -8.067195,3.383018 -9.680634,14.937323 -17.00183,19.083688 -5.482223,3.088088 -11.016493,3.330971 -15.978252,4.892364 a 29.354181,29.354181 0 0 0 -9.802076,5.67306 c -2.290042,1.977764 -2.359437,3.712644 -4.753573,6.210872 -2.394135,2.498229 -10.2010982,0 -13.6535108069999,4.094319 C 1.1103198,54.752494 1.5960864,55.082122 3.7993849,54.787192 c -0.4684178,0.850091 -3.14013404,1.578741 -2.6196698,2.845204 0.5204642,1.266463 7.0436156,2.237996 12.9248609,-1.318509 2.741112,-1.648137 4.927061,-4.042272 9.212217,-4.614783 5.51692,-0.72865 11.883933,0.485767 18.285642,1.405254 a 27.758091,27.758091 0 0 1 -4.371899,6.939522 c -0.468418,0.520465 0.954184,0.572511 2.567623,0.260233 a 25.363956,25.363956 0 0 0 7.234453,-2.584973 c 2.706414,-1.561392 3.105436,-5.603664 6.436407,-6.488453 1.838974,2.845204 6.939523,3.469761 9.992913,1.249114 -2.741111,-0.780697 -3.469761,-6.609896 -2.567623,-9.177519 0.902138,-2.567624 1.73488,-6.332315 2.61967,-9.541844 0.884789,-3.209529 1.30116,-7.806963 2.446181,-9.559193 a 22.137078,22.137078 0 0 1 5.291387,-5.048503 7.4252894,7.4252894 0 0 0 3.105436,-6.367012 c 0,-1.092975 -0.572511,-1.734881 -1.630788,-1.734881 z"
     id="path794"
     inkscape:export-xdpi="90.36631"
     inkscape:export-ydpi="90.36631" />
  <path
     style="fill:#c49a6c;stroke-width:1.73488069"
     inkscape:connector-curvature="0"
     d="m 2.3767828,57.389513 a 16.481367,16.481367 0 0 0 10.1143542,-1.4573 c 2.862553,-1.249114 5.638363,-3.799389 9.02138,-4.892363 4.961759,-1.596091 10.409284,0 15.735368,0.329627 a 23.733168,23.733168 0 0 0 3.851435,0 c 1.977764,-1.214417 1.943066,-5.759804 3.868784,-6.176175 0,6.384361 -2.689065,10.201098 -5.412828,13.879045 a 15.613926,15.613926 0 0 0 11.554306,-8.813194 32.563711,32.563711 0 0 0 1.838973,-4.337201 c 0.832743,0.641905 0.364325,2.567623 0.780696,3.608551 3.972877,-2.203298 6.245571,-7.26915 7.754917,-12.369699 1.734881,-5.915943 2.463531,-11.901282 3.573854,-13.653511 a 14.902625,14.902625 0 0 1 4.3719,-3.851435 6.9395228,6.9395228 0 0 0 3.6259,-4.875015 C 71.182151,14.607355 70.748431,14.173635 70.47085,13.21945 a 5.4995718,5.4995718 0 0 1 -2.75846,0.676604 c -0.850092,0 -1.734881,0 -2.897251,0.104093 -9.368356,0.954184 -10.548075,11.276724 -16.550762,17.123272 a 13.445325,13.445325 0 0 1 -1.405253,1.197068 29.66646,29.66646 0 0 1 -7.043616,3.591203 c -3.851435,1.4573 -7.494684,1.561393 -11.085887,2.827855 a 33.327058,33.327058 0 0 0 -7.494685,3.764692 18.337689,18.337689 0 0 0 -1.526695,1.127672 14.625044,14.625044 0 0 0 -2.9146,3.469761 22.414659,22.414659 0 0 1 -2.879902,3.677948 c -1.977764,1.960415 -9.4204018,0.57251 -12.0227228,2.394135 a 2.1512521,2.1512521 0 0 0 -0.6939523,0.72865 c 1.439951,0.641906 2.3941353,0.242883 4.0249232,0.43372 0.2255345,1.561393 -3.3830174,2.480879 -2.8452043,3.19218 z"
     id="path796"
     inkscape:export-xdpi="90.36631"
     inkscape:export-ydpi="90.36631" />
  <path
     style="fill:#c49a6c;stroke-width:1.73488069"
     inkscape:connector-curvature="0"
     d="m 59.003289,46.164835 a 13.549418,13.549418 0 0 0 2.064508,6.210873 c -1.734881,0.43372 -4.892364,-0.29493 -5.67306,-1.561393 0.468418,-1.821625 2.584972,-3.48711 3.608552,-4.64948 z"
     id="path798"
     inkscape:export-xdpi="90.36631"
     inkscape:export-ydpi="90.36631" />
  <path
     style="fill:#002b64;stroke-width:1.73488069"
     inkscape:connector-curvature="0"
     d="m 61.692354,17.799535 a 2.2032985,2.2032985 0 0 0 3.608552,-2.064508 c -2.047159,-0.156139 -3.244227,0.537813 -3.608552,2.064508 z"
     id="path800"
     inkscape:export-xdpi="90.36631"
     inkscape:export-ydpi="90.36631" />
  <path
     style="fill:#002b64;stroke-width:1.73488069"
     inkscape:connector-curvature="0"
     d="m 70.939268,15.127819 a 6.8007323,6.8007323 0 0 0 -1.040928,3.573854 c 0,0.329628 -0.242884,0.537813 -0.242884,0 a 6.9395228,6.9395228 0 0 1 1.02358,-3.677947 c 0.242883,-0.381673 0.468418,-0.242883 0.260232,0.104093 z"
     id="path802"
     inkscape:export-xdpi="90.36631"
     inkscape:export-ydpi="90.36631" />
  <path
     style="fill:#002b64;stroke-width:1.73488069"
     inkscape:connector-curvature="0"
     d="m 70.574943,14.780843 a 8.6744035,8.6744035 0 0 0 -1.578741,3.868784 c 0,0.312278 -0.29493,0.520464 -0.260232,0 a 8.8825892,8.8825892 0 0 1 1.59609,-3.972877 c 0.277581,-0.312278 0.399022,-0.121441 0.242883,0.104093 z"
     id="path804"
     inkscape:export-xdpi="90.36631"
     inkscape:export-ydpi="90.36631" />
  <path
     style="fill:#002b64;stroke-width:1.73488069"
     inkscape:connector-curvature="0"
     d="m 70.262665,14.485913 a 9.6979831,9.6979831 0 0 0 -2.342089,4.059621 c 0,0.312279 -0.329628,0.503116 -0.260233,0 a 10.305191,10.305191 0 0 1 2.359438,-4.163714 c 0.312279,-0.381673 0.416372,-0.190836 0.242884,0.104093 z"
     id="path806"
     inkscape:export-xdpi="90.36631"
     inkscape:export-ydpi="90.36631" />
  <path
     style="fill:#002b64;stroke-width:1.73488069"
     inkscape:connector-curvature="0"
     d="m 69.967735,14.069542 a 14.173975,14.173975 0 0 0 -2.983995,4.35455 c -0.104093,0.312279 -0.399023,0.433721 -0.242883,0 A 13.688209,13.688209 0 0 1 69.7422,13.965449 c 0.364325,-0.329627 0.451069,-0.121442 0.225535,0.138791 z"
     id="path808"
     inkscape:export-xdpi="90.36631"
     inkscape:export-ydpi="90.36631" />
  <g
     transform="matrix(7.7983536,0,0,7.7983536,20.181204,-1.6393831)"
     id="g33555"
     inkscape:export-xdpi="90.36631"
     inkscape:export-ydpi="90.36631">
    <ellipse
       ry="2.2271719"
       rx="2.1824219"
       cy="6.0435781"
       cx="2.3023469"
       id="path18641"
       style="opacity:0.953;fill:#3d4656;fill-opacity:1;stroke:none;stroke-width:0.58015114;stroke-miterlimit:4;stroke-dasharray:none;stroke-dashoffset:0;stroke-opacity:1" />
    <g
       transform="matrix(1.411077,0,0,1.4286501,-2.7760414,3.6443722)"
       id="g18635">
      <g
         id="g9309"
         transform="matrix(0.01302391,0,0,0.01302391,1.9901863,-0.0075148)">
        <path
           id="path11"
           d="M 128,0.578 C 57.308,0.578 0,56.413 0,125.29 0,168.376 22.427,206.356 56.526,228.76 V 125.354 c -0.001,-0.158 -0.023,-0.31 -0.023,-0.467 0,-0.158 0.022,-0.31 0.023,-0.468 v -0.877 h 0.043 c 0.701,-40.146 32.335,-72.48 71.323,-72.48 39.427,0 71.388,33.052 71.388,73.825 0,40.772 -31.961,73.825 -71.388,73.825 -15.356,0 -29.543,-5.062 -41.187,-13.592 v 58.207 A 130.796,130.796 0 0 0 128,250 C 198.692,250 256,194.165 256,125.29 256,56.412 198.692,0.577 128,0.577"
           inkscape:connector-curvature="0"
           style="fill:url(#linearGradient5751)" />
        <path
           id="path13"
           d="m 171.197,127.472 c 0,23.59 -19.123,42.713 -42.713,42.713 -23.59,0 -42.714,-19.123 -42.714,-42.713 0,-23.59 19.124,-42.713 42.714,-42.713 23.59,0 42.713,19.123 42.713,42.713"
           inkscape:connector-curvature="0"
           style="fill:#fcb42f" />
      </g>
    </g>
  </g>
</svg>
